<svg width="598" height="627" viewBox="0 0 598 627" fill="none" xmlns="http://www.w3.org/2000/svg">
<path fill-rule="evenodd" clip-rule="evenodd" d="M671.288 77.0125C703.549 134.02 650.184 212.075 643.69 281.949C637.594 347.546 673.176 413.538 634.474 473.135C595.28 533.49 516.614 554.507 449.339 581.234C383.218 607.501 316.25 631.556 250.139 625.82C178.32 619.588 109.014 597.327 64.8024 547.868C19.0942 496.734 -11.6414 425.638 5.6021 352.257C22.0476 282.272 91.0058 229.954 150.993 181.078C196.98 143.608 254.373 135.09 306.363 107.202C368.711 73.7573 418.158 7.36633 485.164 1.82305C558.822 -4.27052 638.654 19.346 671.288 77.0125Z" fill="#8C198C"/>
</svg>
